<svg xmlns="http://www.w3.org/2000/svg" viewBox="0 0 40 40" fill="none">
  <circle cx="20" cy="20" r="20" fill="#229ED9"/>
  <path d="M8.6 19.8L13.8 21.8L15.9 28.4C16.1 28.9 16.7 29.1 17.1 28.8L20.1 26.2C20.5 25.9 21 25.9 21.4 26.2L26.9 30.2C27.3 30.5 27.9 30.3 28.1 29.8L32.1 10.6C32.3 10 31.7 9.5 31.1 9.7L8.6 18.4C8 18.6 7.9 19.5 8.6 19.8ZM15.6 20.8L27.2 13.4C27.5 13.2 27.7 13.6 27.5 13.8L17.9 22.7C17.6 23 17.4 23.3 17.4 23.7L17.2 25.9C17.2 26.2 16.8 26.3 16.7 26L15.1 21.7C14.9 21.3 15.1 20.9 15.6 20.8Z" fill="white"/>
</svg>
