<svg xmlns="http://www.w3.org/2000/svg" viewBox="0 0 40 40" fill="none">
  <circle cx="20" cy="20" r="20" fill="#25D366"/>
  <path d="M28.5 11.5C26.5 9.5 23.8 8.4 21 8.4C15.2 8.4 10.5 13.1 10.5 18.9C10.5 20.8 11 22.6 11.9 24.2L10.4 31.6L18 30.1C19.6 31 21.3 31.4 23 31.4C28.8 31.4 33.5 26.7 33.5 20.9C33.5 18.1 32.4 15.5 30.4 13.5L28.5 11.5ZM21 29.4C19.5 29.4 18 29 16.7 28.3L16.4 28.1L13.1 28.9L13.9 25.7L13.7 25.4C12.9 24 12.5 22.5 12.5 20.9C12.5 14.2 17.3 14.2 21 14.2C22.8 14.2 24.5 14.9 25.8 16.2C27.1 17.5 27.8 19.2 27.8 21C27.8 27.7 23.7 29.4 21 29.4ZM24.8 22.5C24.6 22.4 23.4 21.8 23.2 21.7C23 21.6 22.9 21.6 22.7 21.8C22.6 22 22.1 22.6 22 22.7C21.9 22.9 21.7 22.9 21.6 22.8C20.4 22.2 19.6 21.7 18.8 20.4C18.6 20.1 18.9 20.1 19.2 19.5C19.3 19.4 19.2 19.2 19.2 19.1C19.1 19 18.6 17.8 18.4 17.3C18.2 16.8 18 16.9 17.8 16.9C17.7 16.9 17.5 16.9 17.4 16.9C17.2 16.9 16.9 17 16.7 17.2C16.5 17.4 15.8 18 15.8 19.2C15.8 20.4 16.7 21.5 16.9 21.7C17 21.8 18.6 24.3 21.1 25.3C23 26.1 23.6 26.1 24.3 26C24.7 26 25.7 25.4 25.9 24.7C26.1 24.1 26.1 23.5 26 23.4C25.9 23.3 25.1 22.7 24.8 22.5Z" fill="white"/>
</svg>
